<svg xmlns="http://www.w3.org/2000/svg" xmlns:xlink="http://www.w3.org/1999/xlink" width="42" height="36" version="1.1" viewBox="0 0 42 36"><title>编组 8</title><defs><filter id="filter-1" width="200%" height="233.3%" x="-50%" y="-66.7%" filterUnits="objectBoundingBox"><feOffset dx="2" dy="2" in="SourceAlpha" result="shadowOffsetOuter1"/><feGaussianBlur in="shadowOffsetOuter1" result="shadowBlurOuter1" stdDeviation="2"/><feColorMatrix in="shadowBlurOuter1" result="shadowMatrixOuter1" type="matrix" values="0 0 0 0 0.621449681 0 0 0 0 0.743809381 0 0 0 0 0.820284194 0 0 0 0.15 0"/><feMerge><feMergeNode in="shadowMatrixOuter1"/><feMergeNode in="SourceGraphic"/></feMerge></filter><linearGradient id="linearGradient-2" x1="50%" x2="50%" y1="0%" y2="100%"><stop offset="0%" stop-color="#E1E9EE"/><stop offset="100%" stop-color="#B1C4CE"/></linearGradient></defs><g id="页面-1" fill="none" fill-rule="evenodd" stroke="none" stroke-width="1"><g id="编组-8" filter="url(#filter-1)" transform="translate(9.000000, 9.000000)"><path id="矩形" fill="url(#linearGradient-2)" d="M2,4 L8.25371272,4 C8.78987049,4 9.30357751,3.78472661 9.67955503,3.4024884 L12.438589,0.5975116 C12.8145666,0.215273386 13.3282736,-1.23554021e-16 13.8644314,0 L19,0 C20.1045695,-2.16501571e-15 21,0.8954305 21,2 L21,16 C21,17.1045695 20.1045695,18 19,18 L2,18 C0.8954305,18 1.3527075e-16,17.1045695 0,16 L0,6 C3.55256646e-16,4.8954305 0.8954305,4 2,4 Z"/><path id="矩形备份-46" fill="#E1E9EE" d="M3.76379584,7 L22.6907496,7 C23.2430344,7 23.6907496,7.44771525 23.6907496,8 C23.6907496,8.08888199 23.6788998,8.17736728 23.6555134,8.26311741 L21.401936,16.5262348 C21.1646298,17.3963573 20.3743104,18 19.4724083,18 L1.30925039,18 C0.756965637,18 0.309250386,17.5522847 0.309250386,17 C0.309250386,16.911118 0.321100167,16.8226327 0.344486565,16.7368826 L2.79903202,7.73688259 C2.91768509,7.30182133 3.31284478,7 3.76379584,7 Z"/></g></g></svg>