<svg xmlns="http://www.w3.org/2000/svg" xmlns:xlink="http://www.w3.org/1999/xlink" width="480" height="320" version="1.1" viewBox="0 0 480 320"><title>编组备份 3</title><defs><path id="path-1" d="M20.5110816,9.84996032e-16 L459.488918,8.28672246e-16 C466.621068,-4.81482439e-16 469.207358,0.742604889 471.814766,2.13706163 C474.422173,3.53151837 476.468482,5.57782696 477.862938,8.18523437 C479.257395,10.7926418 480,13.3789317 480,20.5110816 L480,299.488918 C480,306.621068 479.257395,309.207358 477.862938,311.814766 C476.468482,314.422173 474.422173,316.468482 471.814766,317.862938 C469.207358,319.257395 466.621068,320 459.488918,320 L20.5110816,320 C13.3789317,320 10.7926418,319.257395 8.18523437,317.862938 C5.57782696,316.468482 3.53151837,314.422173 2.13706163,311.814766 C0.742604889,309.207358 -7.32805207e-16,306.621068 1.26122011e-15,299.488918 L5.52448164e-16,20.5110816 C-3.20988293e-16,13.3789317 0.742604889,10.7926418 2.13706163,8.18523437 C3.53151837,5.57782696 5.57782696,3.53151837 8.18523437,2.13706163 C10.7926418,0.742604889 13.3789317,-5.72311061e-16 20.5110816,9.84996032e-16 Z"/></defs><g id="页面-1" fill="none" fill-rule="evenodd" stroke="none" stroke-width="1"><g id="编组备份-3"><mask id="mask-2" fill="#fff"><use xlink:href="#path-1"/></mask><use id="矩形" fill="#FFF" xlink:href="#path-1"/><g id="编组-3" mask="url(#mask-2)"><g transform="translate(144.000000, 180.000000)"><rect id="矩形备份-15" width="65" height="12" x="0" y="0" fill="#E1E9EE" rx="6"/><g id="编组-4" fill="none" stroke-width="1" transform="translate(151.000000, 0.000000)"><rect id="矩形备份-21" width="40" height="12" x="0" y="0" fill="#E1E9EE" rx="6"/><rect id="矩形备份-25" width="40" height="12" x="0" y="40" fill="#E1E9EE" rx="6"/><rect id="矩形备份-22" width="40" height="8" x="0" y="16" fill="#EAEEF0" rx="4"/><rect id="矩形备份-27" width="40" height="8" x="0" y="56" fill="#EAEEF0" rx="4"/><rect id="矩形备份-32" width="40" height="12" x="0" y="80" fill="#E1E9EE" rx="6"/><rect id="矩形备份-30" width="40" height="8" x="0" y="96" fill="#EAEEF0" rx="4"/></g><g id="编组-5" fill="none" stroke-width="1" transform="translate(223.000000, 0.000000)"><rect id="矩形备份-23" width="40" height="12" x="0" y="0" fill="#E1E9EE" rx="6"/><rect id="矩形备份-26" width="40" height="12" x="0" y="40" fill="#E1E9EE" rx="6"/><rect id="矩形备份-24" width="40" height="8" x="0" y="16" fill="#EAEEF0" rx="4"/><rect id="矩形备份-28" width="40" height="8" x="0" y="56" fill="#EAEEF0" rx="4"/><rect id="矩形备份-31" width="40" height="12" x="0" y="80" fill="#E1E9EE" rx="6"/><rect id="矩形备份-29" width="40" height="8" x="0" y="96" fill="#EAEEF0" rx="4"/></g><rect id="矩形备份-17" width="56" height="12" x="0" y="40" fill="#E1E9EE" rx="6"/><rect id="矩形备份-16" width="80" height="8" x="0" y="16" fill="#EAEEF0" rx="4"/><rect id="矩形备份-18" width="65" height="8" x="0" y="56" fill="#EAEEF0" rx="4"/><rect id="矩形备份-20" width="62" height="12" x="0" y="80" fill="#E1E9EE" rx="6"/><rect id="矩形备份-19" width="76" height="8" x="0" y="96" fill="#EAEEF0" rx="4"/></g></g><g id="编组-7" mask="url(#mask-2)"><g transform="translate(295.000000, 56.000000)"><rect id="矩形" width="160" height="92" x="0" y="0" fill="#E1E9EE" rx="4"/><rect id="矩形备份-7" width="114" height="20" x="23" y="60" fill="#FFF" rx="4"/><rect id="矩形备份-9" width="114" height="8" x="23" y="16" fill="#FFF" rx="4"/><rect id="矩形备份-11" width="114" height="8" x="23" y="28" fill="#FFF" rx="4"/><rect id="矩形备份-13" width="76" height="8" x="42" y="40" fill="#FFF" rx="4"/></g></g><g id="编组-6" mask="url(#mask-2)"><g transform="translate(112.000000, 56.000000)"><rect id="矩形备份-5" width="160" height="92" x="0" y="0" fill="#E1E9EE" rx="4"/><rect id="矩形" width="12" height="44" x="14" y="36" fill="#FFF" rx="6"/><rect id="矩形备份-6" width="12" height="38" x="38" y="42" fill="#FFF" rx="6"/><rect id="矩形备份-8" width="12" height="30" x="62" y="50" fill="#FFF" rx="6"/><rect id="矩形备份-10" width="12" height="46" x="86" y="34" fill="#FFF" rx="6"/><rect id="矩形备份-12" width="12" height="36" x="110" y="44" fill="#FFF" rx="6"/><rect id="矩形备份-14" width="12" height="56" x="134" y="24" fill="#FFF" rx="6"/></g></g><line id="直线" x1=".5" x2="480.5" y1="32.5" y2="32.5" stroke="#F3F5F6" stroke-linecap="square" mask="url(#mask-2)"/><line id="直线备份" x1="90.5" x2="90.5" y1="32.5" y2="320.5" stroke="#F3F5F6" stroke-linecap="square" mask="url(#mask-2)"/><rect id="矩形" width="480" height="32" x="0" y="0" fill="#FFF" mask="url(#mask-2)"/></g></g></svg>